<?xml version="1.0" encoding="iso-8859-1"?>
<!-- Generator: Adobe Illustrator 19.0.0, SVG Export Plug-In . SVG Version: 6.00 Build 0)  -->
<svg version="1.1" id="Layer_1" xmlns="http://www.w3.org/2000/svg" xmlns:xlink="http://www.w3.org/1999/xlink" x="0px" y="0px"
	 viewBox="0 0 512 512" style="enable-background:new 0 0 512 512;" xml:space="preserve">
<path style="fill:#5286FA;" d="M512,139.642c0-8.816-4.98-16.873-12.864-20.815L266.411,2.46
	c-7.214-3.607-15.782-3.222-22.644,1.018c-6.862,4.24-11.037,11.731-11.037,19.797v195.072L33.686,118.822
	c-11.497-5.751-25.476-1.089-31.224,10.407c-5.748,11.495-1.089,25.474,10.406,31.222l191.097,95.551L12.87,351.549
	c-11.495,5.747-16.156,19.727-10.407,31.222c4.077,8.156,12.296,12.87,20.834,12.87c3.497,0,7.048-0.791,10.389-2.462
	l199.045-99.523v195.069c0,8.065,4.175,15.555,11.036,19.797c3.738,2.309,7.982,3.475,12.237,3.475
	c3.558,0,7.123-0.815,10.406-2.456l232.725-116.35c7.885-3.942,12.867-11.999,12.867-20.815s-4.979-16.874-12.863-20.816
	l-191.098-95.557l191.097-95.546C507.02,156.516,512,148.456,512,139.642z M279.275,451.07V293.66l157.414,78.712L279.275,451.07z
	 M279.275,218.347V60.93l157.414,78.711L279.275,218.347z"/>
<path style="fill:#424EDE;" d="M499.135,160.457C507.02,156.516,512,148.458,512,139.642s-4.98-16.873-12.864-20.815L266.411,2.46
	c-7.214-3.607-15.782-3.222-22.644,1.018c-6.862,4.24-11.037,11.731-11.037,19.797v195.072L33.686,118.822
	c-11.497-5.751-25.476-1.089-31.224,10.407c-5.748,11.495-1.089,25.474,10.406,31.222L203.959,256h104.086L499.135,160.457z
	 M279.275,60.93l157.414,78.711l-157.414,78.706V60.93z"/>
<g>
</g>
<g>
</g>
<g>
</g>
<g>
</g>
<g>
</g>
<g>
</g>
<g>
</g>
<g>
</g>
<g>
</g>
<g>
</g>
<g>
</g>
<g>
</g>
<g>
</g>
<g>
</g>
<g>
</g>
</svg>
