<?xml version="1.0" standalone="no"?>
<!DOCTYPE svg PUBLIC "-//W3C//DTD SVG 20010904//EN"
 "http://www.w3.org/TR/2001/REC-SVG-20010904/DTD/svg10.dtd">
<svg version="1.0" xmlns="http://www.w3.org/2000/svg"
 width="980.000000pt" height="770.000000pt" viewBox="0 0 980.000000 770.000000"
 preserveAspectRatio="xMidYMid meet">

<g transform="translate(0.000000,770.000000) scale(0.100000,-0.100000)"
fill="#000000" stroke="none">
<path d="M4560 7689 c-937 -68 -1834 -400 -2580 -954 -191 -142 -332 -266
-541 -474 -207 -207 -329 -346 -474 -541 -963 -1296 -1223 -2985 -696 -4520
43 -126 154 -406 164 -417 2 -2 42 18 88 43 96 54 323 164 452 219 48 20 87
39 87 42 0 2 -29 77 -64 166 -140 355 -225 695 -273 1097 -24 206 -24 697 1
905 59 497 183 929 387 1353 102 213 158 311 295 517 163 246 300 413 528 641
339 338 678 585 1085 788 1252 628 2734 590 3956 -102 140 -79 416 -267 555
-378 173 -138 506 -471 644 -644 111 -139 299 -415 378 -555 580 -1024 704
-2235 346 -3364 -16 -53 -59 -169 -95 -259 -36 -90 -63 -165 -61 -167 1 -1 66
-31 143 -65 77 -34 217 -101 312 -150 l172 -89 10 27 c5 15 30 76 56 137 359
855 457 1875 269 2815 -161 806 -508 1533 -1042 2180 -124 150 -475 500 -627
626 -765 631 -1646 1002 -2635 1109 -174 19 -664 27 -840 14z"/>
<path d="M4550 5950 l0 -700 350 0 350 0 0 700 0 700 -350 0 -350 0 0 -700z"/>
<path d="M2636 5915 c-153 -111 -278 -205 -279 -210 0 -10 806 -1124 815
-1124 14 -1 563 401 561 410 -3 8 -798 1107 -812 1120 -3 4 -131 -84 -285
-196z"/>
<path d="M6480 5563 c-223 -306 -408 -561 -412 -567 -6 -10 540 -416 559 -416
6 1 787 1068 815 1115 5 9 -75 73 -245 196 -138 100 -266 193 -282 205 l-30
23 -405 -556z"/>
<path d="M4655 3428 l-241 -1443 -89 -59 c-178 -117 -330 -306 -403 -499 -54
-145 -66 -214 -66 -382 0 -124 4 -165 23 -238 102 -395 383 -675 777 -778 129
-34 359 -34 489 0 394 102 674 383 776 778 19 73 23 114 23 238 0 168 -12 237
-66 382 -73 194 -231 389 -408 505 l-85 55 -240 1442 c-132 792 -242 1441
-245 1441 -3 0 -113 -649 -245 -1442z"/>
<path d="M1235 3996 c-58 -178 -105 -329 -105 -334 0 -6 141 -57 313 -113 749
-244 1011 -328 1013 -326 6 8 215 660 212 662 -2 2 -296 99 -653 215 -358 116
-655 213 -662 215 -8 3 -48 -105 -118 -319z"/>
<path d="M7795 4102 c-363 -117 -661 -215 -663 -217 -3 -3 207 -656 212 -662
4 -4 1316 424 1323 431 6 6 -190 625 -206 652 -4 7 -235 -64 -666 -204z"/>
<path d="M1783 2147 c-359 -117 -653 -216 -653 -221 0 -15 202 -640 210 -649
6 -7 1307 408 1322 422 4 4 -40 152 -97 330 -58 178 -105 326 -105 328 0 9
-73 -13 -677 -210z"/>
<path d="M7326 2313 c-157 -485 -195 -608 -188 -613 9 -8 1288 -422 1308 -424
12 -1 41 77 120 319 57 176 104 325 104 330 0 9 -1291 435 -1318 435 -6 0 -17
-21 -26 -47z"/>
</g>
</svg>
