<?xml version="1.0" encoding="iso-8859-1"?>
<!-- Generator: Adobe Illustrator 18.1.1, SVG Export Plug-In . SVG Version: 6.00 Build 0)  -->
<svg version="1.1" id="Capa_1" xmlns="http://www.w3.org/2000/svg" xmlns:xlink="http://www.w3.org/1999/xlink" x="0px" y="0px"
	 viewBox="0 0 398.113 398.113" style="enable-background:new 0 0 398.113 398.113;" xml:space="preserve">
<g>
	<g>
		<path style="fill:#010002;" d="M59.948,39.09c0-4.495-3.633-8.129-8.129-8.129c-4.495,0-8.129,3.633-8.129,8.129v237.224H0V380.23
			h103.639V276.315H59.948V39.09z M87.382,292.572v71.401H16.257v-71.401C16.257,292.572,87.382,292.572,87.382,292.572z"/>
		<path style="fill:#010002;" d="M205.58,39.09c0-4.495-3.633-8.129-8.129-8.129s-8.129,3.633-8.129,8.129v105.533h-43.691v103.916
			h43.691v105.525c0,4.503,3.642,8.129,8.129,8.129s8.129-3.625,8.129-8.129V248.539h43.691V144.624H205.58V39.09z M233.014,160.881
			v71.401h-71.125v-71.401H233.014z"/>
		<path style="fill:#010002;" d="M294.474,17.883v103.916h43.691v237.224c0,4.495,3.642,8.129,8.129,8.129
			c4.495,0,8.129-3.633,8.129-8.129V121.799h43.691V17.883H294.474z M381.856,105.541h-71.125V34.14h71.125V105.541z"/>
	</g>
</g>
<g>
</g>
<g>
</g>
<g>
</g>
<g>
</g>
<g>
</g>
<g>
</g>
<g>
</g>
<g>
</g>
<g>
</g>
<g>
</g>
<g>
</g>
<g>
</g>
<g>
</g>
<g>
</g>
<g>
</g>
</svg>
