<?xml version="1.0" encoding="utf-8"?>
<!-- Svg Vector Icons : http://www.onlinewebfonts.com/icon -->
<!DOCTYPE svg PUBLIC "-//W3C//DTD SVG 1.1//EN" "http://www.w3.org/Graphics/SVG/1.1/DTD/svg11.dtd">
<svg version="1.1" xmlns="http://www.w3.org/2000/svg" xmlns:xlink="http://www.w3.org/1999/xlink" x="0px" y="0px" viewBox="0 0 1000 1000" enable-background="new 0 0 1000 1000" xml:space="preserve">
<metadata> Svg Vector Icons : http://www.onlinewebfonts.com/icon </metadata>
<g><g transform="translate(0.000000,496.000000) scale(0.100000,-0.100000)"><path d="M4711,4692.1c-70.8-7.7-145.5-24.9-168.4-36.4c-55.5-30.6-70.8-107.2-40.2-210.5c68.9-233.5,40.2-388.6-93.8-520.6c-126.3-126.3-298.6-164.6-488.1-109.1c-91.9,28.7-233.5,160.8-252.7,239.3c-21.1,86.1-80.4,155-143.6,168.4c-49.8,11.5-78.5,0-166.5-59.3c-139.7-95.7-470.9-426.8-566.6-566.6c-67-97.6-72.7-116.8-57.4-172.3c15.3-51.7,40.2-74.6,141.6-124.4c201-99.5,287.1-229.7,287.1-428.8c0-141.6-36.4-231.6-132.1-325.4c-126.3-128.2-315.8-168.4-474.7-103.4c-36.4,15.3-93.8,28.7-124.4,28.7c-128.2,0-155-55.5-178-348.4l-13.4-168.4h155h155v82.3v80.4h158.9c135.9,0,174.2,9.6,287.1,61.3c170.4,80.4,321.6,231.6,402,402c53.6,114.8,61.3,149.3,61.3,292.9s-7.7,178-61.3,292.8c-36.4,76.6-105.3,176.1-170.3,243.1l-107.2,112.9l70.8,84.2c40.2,47.9,109.1,116.8,157,157l84.2,70.8l112.9-107.2c67-65.1,166.5-134,243.1-170.4c114.8-53.6,149.3-61.3,292.8-61.3s178,7.7,292.8,61.3c170.4,80.4,321.6,231.6,402,402c51.7,112.9,61.3,151.2,61.3,287.1V4405H5000h162.7v-158.9c0-135.9,9.6-174.2,61.3-285.2c84.2-178,208.6-306.3,386.7-394.3c132.1-65.1,156.9-70.8,308.2-70.8s176.1,5.7,308.2,70.8c93.8,45.9,176.1,105.3,235.4,168.4c49.8,51.7,93.8,95.7,99.5,95.7c21.1,0,179.9-143.6,246.9-224l70.8-84.2l-107.2-112.9c-65.1-67-134-166.5-170.3-243.1c-53.6-114.8-61.3-149.3-61.3-292.8s7.7-178,61.3-290.9c84.2-178,208.6-306.3,384.7-394.3c132.1-63.2,158.9-70.8,304.3-70.8H7450v-80.4V1955h155h155l-13.4,187.6c-23,306.3-70.8,363.7-256.5,310.1c-233.5-68.9-388.5-40.2-520.6,93.8c-95.7,93.8-132.1,183.8-132.1,325.4c0,199.1,86.1,329.2,287.1,428.8c101.4,49.8,126.3,72.7,141.7,122.5c13.4,53.6,9.6,74.6-32.5,137.8c-145.5,220.1-580,635.5-694.8,664.2c-82.3,21.1-135.9-21.1-201-155c-90-191.4-222-277.5-423-277.5c-134,0-252.7,49.8-338.8,143.6c-114.8,124.4-149.3,308.2-88,478.5c53.6,149.3,28.7,225.9-82.3,258.4C5308.2,4699.8,4866,4713.2,4711,4692.1z"/><path d="M4751.2,3304.4c-449.8-90-851.8-424.9-1025.9-851.8c-47.9-118.7-103.4-359.8-103.4-451.7c0-44,3.8-45.9,153.1-45.9h153.1v72.7c1.9,220.1,132.1,516.8,308.2,691c409.6,409.6,1117.8,409.6,1527.4,0c176.1-174.2,306.3-470.9,308.2-691V1955H6225c178,0,172.3-9.6,126.3,233.5c-88,461.3-419.2,863.2-853.7,1041.2C5256.5,3327.4,4996.2,3354.2,4751.2,3304.4z"/><path d="M4873.7,2550.3c-95.7-24.9-254.6-120.6-315.8-187.6c-74.6-86.1-143.6-225.9-160.8-325.4l-13.4-82.3h153.1H4688l13.4,72.7c21.1,141.6,139.7,233.5,298.6,233.5c158.9,0,277.5-91.9,298.6-233.5l13.4-72.7h151.2h153.1l-13.4,82.3c-32.5,185.7-174.2,371.3-354.1,463.2C5145.5,2552.2,4973.2,2575.2,4873.7,2550.3z"/><path d="M1476.2,1618.1c-128.2-38.3-266.1-139.7-336.9-245c-126.3-185.7-120.6-65.1-120.6-2455.8v-2168.6h153.1H1325l3.8,2208.8c5.7,2201.2,5.7,2210.7,45.9,2264.3c21.1,28.7,68.9,68.9,105.3,86.1c61.2,32.5,268,34.5,3520,34.5c3252,0,3458.7-1.9,3520-34.5c36.4-17.2,84.2-57.4,105.3-86.1c40.2-53.6,40.2-63.2,45.9-2264.3l3.8-2208.8h153.1h153.1l-3.8,2206.9l-5.7,2205l-44,93.8c-65.1,143.6-160.8,246.9-294.8,319.7l-120.6,65.1l-3474,3.8C2067.7,1644.9,1550.9,1643,1476.2,1618.1z"/><path d="M1631.2-1107.5v-2143.7H5000h3368.7v2143.7v2143.8H5000H1631.2V-1107.5z M8062.5-1107.5V-2945H5000H1937.5v1837.5V730H5000h3062.5V-1107.5z"/><path d="M4990.4-849.1c-484.3-727.3-612.5-907.3-631.6-890c-15.3,11.5-287.1,348.4-606.8,748.4l-580,725.4l-344.5-344.5L2483-954.4h-120.6h-118.7v-153.1v-153.1h185.7H2617l268,268l269.9,268l620.2-775.2c340.7-426.8,625.9-769.5,633.6-761.8c5.7,9.6,281.4,419.2,608.7,911.1c488.1,731.2,602.9,892,624,874.7c15.3-11.5,287.1-348.4,606.8-748.4l580-725.4l344.5,344.5l344.5,344.5h120.6h118.7v153.1v153.1h-185.7H7383l-268-268l-269.9-268l-618.3,775.2c-342.6,426.8-622.1,775.2-624,775.2S5325.4-349.5,4990.4-849.1z"/><path d="M100-3821.6v-262.2l350.3-350.3l348.4-348.4H5000h4201.4l350.3,350.3l348.4,348.4v264.1v262.2H7951.5H6004.9l-153.1-153.1l-153.1-153.1H5000h-698.6l-153.1,153.1l-153.1,153.1H2048.5H100V-3821.6z M4014.3-4016.9l153.1-153.1H5000h832.6l153.1,153.1l153.1,153.1h1726.5h1728.4v-42.1c0-30.6-82.3-126.3-262.2-306.3l-264.1-264.1H5000H932.6L670.4-4214c-183.7,183.7-264.1,277.5-264.1,306.3v44h1728.4h1726.5L4014.3-4016.9z"/></g></g>
</svg>